<svg class="nc-icon glyph" xmlns="http://www.w3.org/2000/svg" xmlns:xlink="http://www.w3.org/1999/xlink" x="0px" y="0px" width="48px" height="48px" viewBox="0 0 48 48">
<g>
<path fill="#fcfcfc" d="M24,31L24,31c-6.627,0-12-5.373-12-12v-6c0-6.627,5.373-12,12-12h0c6.627,0,12,5.373,12,12v6
	C36,25.627,30.627,31,24,31z"></path>
<path data-color="color-2" fill="#fcfcfc" d="M42.572,35.977l-9.953-5.967C30.24,31.876,27.251,33,24,33s-6.24-1.124-8.619-2.99
	l-9.954,5.968C3.93,36.875,3,38.519,3,40.265V46c0,0.552,0.448,1,1,1h40c0.552,0,1-0.448,1-1v-5.735
	C45,38.519,44.07,36.875,42.572,35.977z"></path>
</g>
</svg>